<svg xmlns="http://www.w3.org/2000/svg" viewBox="0 0 152 104"><path d="M.92 66.23V66c0-19.89 15.21-36.26 36.52-36.26 11.32 0 19 3.29 25 8.87a3.94 3.94 0 01.22 5.58l-6.8 7.31a4 4 0 01-5.5.25 18.76 18.76 0 00-13.08-5c-9.88 0-16.9 8.71-16.9 19V66c0 10.65 6.89 19.23 17.68 19.23 5.41 0 9.44-1.91 13.35-5.09a4 4 0 015.24.32l6.24 6.31a3.93 3.93 0 01-.09 5.62c-6.17 5.88-13.62 9.86-25.65 9.86C16.26 102.22.92 86.11.92 66.23zM79 31h11.91a3.93 3.93 0 013.93 3.93v61.8a3.93 3.93 0 01-3.93 3.93H79a3.93 3.93 0 01-3.93-3.93V34.94A3.93 3.93 0 0179 31z"/><circle cx="84.97" cy="11.67" r="10.9"/><path d="M114.43 80.91V50.52a2.63 2.63 0 00-2.63-2.62H110a3.93 3.93 0 01-3.89-3.9v-9a3.93 3.93 0 013.89-4h1.76a2.62 2.62 0 002.63-2.62V17.14a3.93 3.93 0 013.93-3.93h11.89a3.93 3.93 0 013.93 3.93v11.25A2.62 2.62 0 00136.8 31h9.82a3.93 3.93 0 013.93 3.93v9a3.93 3.93 0 01-3.93 3.93h-9.82a2.62 2.62 0 00-2.62 2.62v27.18c0 4.55 1.95 6.76 6.37 6.76a20.47 20.47 0 006.36-1 2.62 2.62 0 013.38 2.58v9.5a3.93 3.93 0 01-2.17 3.5 29.8 29.8 0 01-13.42 2.85c-12.09-.02-20.27-4.85-20.27-20.94z"/></svg>