<svg xmlns="http://www.w3.org/2000/svg" viewBox="0 0 80 80"><path d="M70 36.67A3.33 3.33 0 1166.67 40 3.33 3.33 0 0170 36.67zm-50 30A3.33 3.33 0 1116.67 70 3.33 3.33 0 0120 66.67zM70 30a10 10 0 1010 10 10 10 0 00-10-10zM20 60a10 10 0 1010 10 10 10 0 00-10-10zM35.29 3.4l1.38-.07A36.63 36.63 0 0169.33 23.4a16.41 16.41 0 00-6.66 1.71 30 30 0 00-26-15.11 16.56 16.56 0 00-1.38-6.6zm34 53.2a36.63 36.63 0 01-32.62 20.07l-1.38-.07a16.56 16.56 0 001.38-6.6 30 30 0 0026-15.11 16.41 16.41 0 006.66 1.71zm-63 3.95a36.67 36.67 0 010-41.1 16.78 16.78 0 005 4.68 29.73 29.73 0 000 31.74 16.66 16.66 0 00-4.99 4.68z"/><path class="prefix__cls-1" d="M20 0a10 10 0 1010 10A10 10 0 0020 0zm0 13.33A3.33 3.33 0 1123.33 10 3.33 3.33 0 0120 13.33z"/></svg>