<svg xmlns="http://www.w3.org/2000/svg" viewBox="0 0 74 80"><path d="M64.88 31.05C63.59 16.61 54.06 3 37 3S10.41 16.61 9.12 31.05C3.55 31.54 1 36.81 1 42.94c0 5.26 2.93 11.9 9.31 14.67C19.12 73.72 32.91 75 37 75s17.88-1.28 26.69-17.39C70.07 54.84 73 48.2 73 42.94c0-6.06-2.52-11.4-8.12-11.89zM60.6 52.38a3 3 0 00-1.71 1.47C51.68 67.91 40.31 69 37 69s-14.68-1.09-21.89-15.15a3 3 0 00-1.71-1.47c-7.34-2.49-7.66-13.09-4.66-15a2.26 2.26 0 012-.16A3 3 0 0015 34.44l.06-1.7c5.41-1.22 13-8.32 14.89-12.11-.2 2.55-2.67 9.76-6.22 12.18 8.24 0 18.75-7.52 23.05-14.48.26 6.24 6.34 12.05 12.1 12.93a31 31 0 01.12 3.18 3 3 0 004.22 2.74 2.25 2.25 0 012 .16c3.04 1.95 2.78 12.55-4.62 15.04zM50.5 40.5c0 2.48-1.68 4.5-3.75 4.5S43 43 43 40.5s1.68-4.5 3.75-4.5 3.75 2 3.75 4.5zM27.25 45c-2.07 0-3.75-2-3.75-4.5s1.68-4.5 3.75-4.5S31 38 31 40.5 29.32 45 27.25 45zm.75 9h18s-2.3 7.06-9 7.06c-6.46 0-9-7.06-9-7.06z"/></svg>